<svg xmlns="http://www.w3.org/2000/svg" xmlns:xlink="http://www.w3.org/1999/xlink" width="320" height="181" version="1.1" viewBox="0 0 320 181"><title>Page 1</title><desc>Created with Sketch.</desc><defs><polygon id="path-1" points="64.522 .001 64.522 25.797 0 25.797 0 .001"/><polygon id="path-3" points="0 0 80.653 0 80.653 145.102 0 145.102"/></defs><g id="After-SIgnup-Process" fill="none" fill-rule="evenodd" stroke="none" stroke-width="1"><g id="Success" transform="translate(-830.000000, -348.000000)"><g id="Page-1" transform="translate(830.000000, 348.000000)"><polygon id="Fill-1" fill="#DBE5EA" points="97.143 77.714 97.143 174.146 113.42 174.146 126.442 180.571 204.571 180.571 204.571 77.714"/><g id="Group-19"><path id="Fill-2" fill="#EFF4F7" d="M238.320958,81.1649224 C240.840545,83.683249 242.101951,86.9851265 242.101951,90.2870041 C242.101951,93.5856571 240.840545,96.8875347 238.320958,99.4058612 C235.804598,101.924188 232.497842,103.184963 229.197539,103.184963 L196.93651,103.184963 C193.63298,103.184963 190.329451,101.924188 187.81309,99.4058612 C185.293504,96.8875347 184.032098,93.5856571 184.032098,90.2870041 C184.032098,86.9851265 185.293504,83.683249 187.81309,81.1649224 C190.329451,78.6465959 193.63298,77.3890449 196.93651,77.3890449 L229.197539,77.3890449 C232.497842,77.3890449 235.804598,78.6465959 238.320958,81.1649224 Z"/><g id="Group-6" transform="translate(180.805672, 103.183673)"><mask id="mask-2" fill="#fff"><use xlink:href="#path-1"/></mask><path id="Fill-4" fill="#EFF4F7" d="M60.7413888,3.77716735 C58.2250285,1.25884082 54.918273,0.00128979592 51.6179697,0.00128979592 L12.9047344,0.00128979592 C9.60120496,0.00128979592 6.29767555,1.25884082 3.78131526,3.77716735 C1.26172886,6.29549388 0.000322610294,9.59737143 0.000322610294,12.899249 C0.000322610294,16.197902 1.26172886,19.4997796 3.78131526,22.0181061 C6.29767555,24.5364327 9.60120496,25.7972082 12.9047344,25.7972082 L51.6179697,25.7972082 C54.918273,25.7972082 58.2250285,24.5364327 60.7413888,22.0181061 C63.2609752,19.4997796 64.5223814,16.197902 64.5223814,12.899249 C64.5223814,9.59737143 63.2609752,6.29549388 60.7413888,3.77716735" mask="url(#mask-2)"/></g><path id="Fill-7" fill="#EFF4F7" d="M235.094855,132.756759 C232.578495,130.238433 229.271739,128.980882 225.971436,128.980882 L196.93651,128.980882 C193.63298,128.980882 190.329451,130.238433 187.81309,132.756759 C185.290278,135.275086 184.032098,138.576963 184.032098,141.878841 C184.032098,145.177494 185.290278,148.476147 187.81309,150.997698 C190.329451,153.516024 193.63298,154.7768 196.93651,154.7768 L225.971436,154.7768 C229.271739,154.7768 232.578495,153.516024 235.094855,150.997698 C237.614442,148.476147 238.875848,145.177494 238.875848,141.878841 C238.875848,138.576963 237.614442,135.275086 235.094855,132.756759"/><path id="Fill-9" fill="#EFF4F7" d="M231.868752,158.55429 C229.352392,156.035963 226.045636,154.775188 222.745333,154.775188 L200.162613,154.775188 C196.859083,154.775188 193.555554,156.035963 191.039193,158.55429 C188.516381,161.072616 187.258201,164.374494 187.258201,167.673147 C187.258201,170.975024 188.516381,174.273678 191.039193,176.792004 C193.555554,179.310331 196.859083,180.571106 200.162613,180.571106 L222.745333,180.571106 C226.045636,180.571106 229.352392,179.310331 231.868752,176.792004 C234.388339,174.273678 235.649745,170.975024 235.649745,167.673147 C235.649745,164.374494 234.388339,161.072616 231.868752,158.55429"/><g id="Group-13" transform="translate(96.926996, 0.000000)"><mask id="mask-4" fill="#fff"><use xlink:href="#path-3"/></mask><path id="Fill-11" fill="#EFF4F7" d="M77.8171517,2.83400408 C75.9266553,0.944453061 73.4490083,-0.00032244898 70.9745873,-0.00032244898 C68.4969403,-0.00032244898 66.0225193,0.944453061 64.132023,2.83400408 C62.2415267,4.72033061 61.2962785,7.19996327 61.2962785,9.67314694 L51.6179697,32.2445755 L12.9047344,77.3874327 L0.000322610294,77.3874327 L0.000322610294,145.101718 L22.5830432,145.101718 C47.5272711,145.101718 67.7484844,124.893841 67.7484844,99.9588612 L67.7484844,77.3874327 L80.6528961,32.2445755 L80.6528961,9.67314694 C80.6528961,7.19996327 79.707648,4.72033061 77.8171517,2.83400408" mask="url(#mask-4)"/></g><path id="Stroke-33" stroke="#DEE3E7" stroke-width="2" d="M277.071429,178.285714 L250.285714,178.285714"/><path id="Stroke-34" stroke="#DEE3E7" stroke-width="2" d="M319.857143,156.571429 L266.285714,156.571429"/><path id="Stroke-35" stroke="#DEE3E7" stroke-width="2" d="M43.4285714,19.4285714 L70.2142857,19.4285714"/><path id="Stroke-36" stroke="#DEE3E7" stroke-width="2" d="M0,41.1428571 L53.5714286,41.1428571"/><polygon id="Fill-14" fill="#7AD3FF" points="38.857 180.571 96.927 180.571 96.927 77.388 38.857 77.388"/><polygon id="Fill-16" fill="#6CB9FF" points="38.857 180.571 71.118 180.571 71.118 77.388 38.857 77.388"/><path id="Stroke-17" stroke="#FFF" stroke-width="2" d="M87.248687,167.673469 L80.7964811,167.673469"/><path id="Stroke-18" stroke="#FFF" stroke-width="2" d="M87.248687,154.77551 L80.7964811,154.77551"/></g></g></g></g></svg>