<svg xmlns="http://www.w3.org/2000/svg" xmlns:xlink="http://www.w3.org/1999/xlink" width="392" height="250" version="1.1" viewBox="0 0 392 250"><title>Error</title><desc>Created with Sketch.</desc><g id="Signup" fill="none" fill-rule="evenodd" stroke="none" stroke-width="1"><g id="Error"><g transform="translate(-755.000000, -324.000000) translate(755.000000, 326.000000)"><path id="Fill-1" fill="#D8DFE3" d="M304.837209,93.8639104 C304.837209,89.7115525 303.253788,85.5551357 300.090996,82.380997 C296.932254,79.2149763 292.781342,77.627907 288.63853,77.627907 L102.353718,77.627907 C98.2109058,77.627907 94.0599943,79.2149763 90.9012518,82.380997 C87.7384597,85.5551357 86.1550388,89.7115525 86.1550388,93.8639104 L86.1550388,223.751938 L304.837209,223.751938 L304.837209,93.8639104 Z"/><path id="Stroke-33" stroke="#DEE3E7" stroke-width="2" d="M353,221 L329,221"/><path id="Stroke-34" stroke="#DEE3E7" stroke-width="2" d="M392,202 L344,202"/><path id="Stroke-35" stroke="#DEE3E7" stroke-width="2" d="M39,57 L63,57"/><path id="Stroke-36" stroke="#DEE3E7" stroke-width="2" d="M0,76 L48,76"/><polygon id="Fill-3" fill="#FFF" points="103.287 207.628 290.729 207.628 290.729 93.752 103.287 93.752"/><polygon id="Fill-5" fill="#F7FBFD" points="66 231.814 326 231.814 326 223.752 66 223.752"/><path id="Fill-6" fill="#EFF4F7" d="M326,231.813953 C326,235.937674 324.411563,240.065426 321.23875,243.213643 C318.07,246.36186 313.905938,247.937984 309.75,247.937984 L82.25,247.937984 C78.0940625,247.937984 73.93,246.36186 70.76125,243.213643 C67.5884375,240.065426 66,235.937674 66,231.813953 L326,231.813953 Z"/><polygon id="Fill-7" fill="#D8E0E4" points="221.068 231.814 171.94 231.814 163.752 223.752 229.256 223.752"/><polygon id="Fill-8" fill="#EFF4F7" points="103.287 207.628 290.729 207.628 290.729 191.504 103.287 191.504"/><polygon id="Fill-9" fill="#EFF4F7" points="103.287 109.876 290.729 109.876 290.729 93.752 103.287 93.752"/><path id="Stroke-10" stroke="#474545" stroke-width="2" d="M281.658915,150.186047 L273.596899,150.186047"/><path id="Stroke-11" stroke="#474545" stroke-width="2" d="M266.542636,150.186047 L225.224806,150.186047"/><path id="Stroke-12" stroke="#474545" stroke-width="2" d="M110.341085,150.186047 L118.403101,150.186047"/><path id="Stroke-13" stroke="#474545" stroke-width="2" d="M127.472868,150.186047 L168.790698,150.186047"/><path id="Fill-14" fill="#171fc9" stroke="#171fc9" stroke-width=".5" d="M229.255814,150.689922 C229.255814,168.77718 214.591134,183.44186 196.503876,183.44186 C178.416618,183.44186 163.751938,168.77718 163.751938,150.689922 C163.751938,132.602665 178.416618,117.937984 196.503876,117.937984 C214.591134,117.937984 229.255814,132.602665 229.255814,150.689922"/><path id="Stroke-15" stroke="#474545" stroke-width="2" d="M175.844961,195.534884 L183.906977,195.534884"/><path id="Stroke-16" stroke="#474545" stroke-width="2" d="M191.968992,195.534884 L200.031008,195.534884"/><path id="Stroke-17" stroke="#474545" stroke-width="2" d="M208.093023,195.534884 L216.155039,195.534884"/><path id="Stroke-18" stroke="#FFF" stroke-width="2" d="M183.906977,138.093023 L208.093023,162.27907"/><path id="Stroke-19" stroke="#FFF" stroke-width="2" d="M183.906977,162.27907 L208.093023,138.093023"/><path id="Stroke-20" stroke="#171fc9" stroke-width="4" d="M138.55814,56.4651163 C138.55814,25.3457364 164.098893,0.0310077519 195.496124,0.0310077519 C226.893355,0.0310077519 252.434109,25.3457364 252.434109,56.4651163"/><path id="Stroke-21" stroke="#171fc9" stroke-width="4" d="M155.689922,57.4728682 C155.689922,34.6902171 173.773023,16.1550388 196,16.1550388 C218.226977,16.1550388 236.310078,34.6902171 236.310078,57.4728682"/><path id="Stroke-22" stroke="#171fc9" stroke-width="4" d="M170.806202,57.4728682 C170.806202,44.1342636 181.653643,33.2868217 194.992248,33.2868217 C208.330853,33.2868217 219.178295,44.1342636 219.178295,57.4728682"/><path id="Stroke-23" stroke="#171fc9" stroke-width="4" d="M204.062016,56.4651163 C204.062016,60.9153488 200.450233,64.5271318 196,64.5271318 C191.549767,64.5271318 187.937984,60.9153488 187.937984,56.4651163 C187.937984,52.0148837 191.549767,48.4031008 196,48.4031008 C200.450233,48.4031008 204.062016,52.0148837 204.062016,56.4651163 Z"/></g></g></g></svg>