<svg xmlns="http://www.w3.org/2000/svg" xmlns:xlink="http://www.w3.org/1999/xlink" width="432" height="261" version="1.1" viewBox="0 0 432 261"><title>Page 1</title><desc>Created with Sketch.</desc><g id="After-SIgnup-Process" fill="none" fill-rule="evenodd" stroke="none" stroke-width="1"><g id="Copy-Password" transform="translate(-834.000000, -323.000000)"><g id="Page-1" transform="translate(834.000000, 323.000000)"><polygon id="Fill-1" fill="#171fc9" stroke="#171fc9" stroke-width=".5" points="132.138 260 174.724 260 174.724 252.155 132.138 252.155"/><polygon id="Fill-2" fill="#171fc9" stroke="#171fc9" stroke-width=".5" points="266.621 260 308.086 260 308.086 252.155 266.621 252.155"/><g id="Group-30"><path id="Fill-3" fill="#BEEFFF" d="M338.344828,234.83871 C338.344828,239.12871 336.701616,243.427097 333.419397,246.698065 C330.141379,249.973226 325.833728,251.612903 321.534483,251.612903 L119.810345,251.612903 C115.511099,251.612903 111.203448,249.973226 107.925431,246.698065 C104.643211,243.427097 103,239.12871 103,234.83871 L103,16.7741935 C103,12.4841935 104.643211,8.19 107.925431,4.91064516 C111.203448,1.63967742 115.511099,0 119.810345,0 L321.534483,0 C325.833728,0 330.141379,1.63967742 333.419397,4.91064516 C336.701616,8.19 338.344828,12.4841935 338.344828,16.7741935 L338.344828,234.83871 Z"/><polygon id="Stroke-33" fill="#DEE3E7" fill-rule="nonzero" points="388 200 361 200 361 202 388 202"/><polygon id="Stroke-34" fill="#DEE3E7" fill-rule="nonzero" points="432 178 378 178 378 180 432 180"/><polygon id="Stroke-35" fill="#DEE3E7" fill-rule="nonzero" points="44 27 71 27 71 25 44 25"/><polygon id="Stroke-36" fill="#DEE3E7" fill-rule="nonzero" points="0 48 54 48 54 46 0 46"/><polygon id="Fill-5" fill="#EFF4F7" points="308.927 54.516 308.927 197.097 283.711 222.258 132.418 222.258 132.418 29.355 283.711 29.355"/><path id="Stroke-7" fill="#171fc9" stroke="#171fc9" stroke-width=".5" d="M300.521552,33.5483871 L308.926724,33.5483871"/><path id="Stroke-9" fill="#171fc9" stroke="#171fc9" stroke-width=".5" d="M300.521552,218.064516 L308.926724,218.064516"/><polygon id="Fill-11" fill="#D8DFE3" points="124.013 96.452 140.823 96.452 140.823 54.516 124.013 54.516"/><polygon id="Fill-13" fill="#D8DFE3" points="124.013 197.097 140.823 197.097 140.823 155.161 124.013 155.161"/><polygon id="Fill-14" fill="#D8DFE3" points="157.634 130 182.849 130 182.849 104.839 157.634 104.839"/><polygon id="Fill-15" fill="#D8DFE3" points="191.254 130 216.47 130 216.47 104.839 191.254 104.839"/><polygon id="Fill-16" fill="#D8DFE3" points="224.875 130 250.091 130 250.091 104.839 224.875 104.839"/><polygon id="Fill-17" fill="#D8DFE3" points="258.496 130 283.711 130 283.711 104.839 258.496 104.839"/><polygon id="Fill-18" fill="#D8DFE3" points="157.634 163.548 182.849 163.548 182.849 138.387 157.634 138.387"/><polygon id="Fill-19" fill="#D8DFE3" points="157.634 197.097 182.849 197.097 182.849 171.935 157.634 171.935"/><polygon id="Fill-20" fill="#D8DFE3" points="191.254 197.097 283.711 197.097 283.711 171.935 191.254 171.935"/><polygon id="Fill-21" fill="#D8DFE3" points="191.254 163.548 216.47 163.548 216.47 138.387 191.254 138.387"/><polygon id="Fill-22" fill="#D8DFE3" points="224.875 163.548 250.091 163.548 250.091 138.387 224.875 138.387"/><polygon id="Fill-23" fill="#D8DFE3" points="258.496 163.548 283.711 163.548 283.711 138.387 258.496 138.387"/><polygon id="Fill-24" fill="#D8DFE3" points="157.634 96.452 283.711 96.452 283.711 54.516 157.634 54.516"/><polygon id="Fill-25" fill="#FFF" points="166.039 88.065 275.306 88.065 275.306 62.903 166.039 62.903"/><path id="Stroke-26" stroke="#171fc9" stroke-width="10" d="M266.900862,76 L258.49569,76"/><path id="Stroke-27" stroke="#171fc9" stroke-width="10" d="M250.090517,76 L241.685345,76"/><path id="Stroke-28" stroke="#171fc9" stroke-width="10" d="M233.280172,76 L224.875,76"/><path id="Stroke-29" stroke="#171fc9" stroke-width="10" d="M216.469828,76 L208.064655,76"/></g></g></g></g></svg>